#!OML:ASF H:\ManfredObstacles\Project 1\Capture day 2\Session 1\male.ASF
:FULLY-SPECIFIED
:DEGREES
210
root 1.74002 15.6821 3.62322 -171.204 0.842505 177.678
lowerback -6.4464 -0.215288 -5.11758
upperback 1.39033 0.18754 -0.491447
thorax 5.05889 -0.0425364 2.38424
lowerneck -37.2658 -1.65682 1.13915
upperneck 39.9393 -2.12045 1.49099
head 24.1452 0.367535 0.283596
rclavicle -2.11209e-015 -9.83984e-015
rhumerus -42.284 -31.4222 -65.9325
rradius 22.0661
rwrist 41.9881
rhand -4.09279 -7.22096
rfingers 7.12502
rthumb 21.6649 -36.0288
lclavicle -2.11209e-015 -9.83984e-015
lhumerus -31.6608 33.0226 72.0749
lradius 16.0468
lwrist -63.0656
lhand -1.78082 7.09049
lfingers 7.12502
lthumb 23.8836 35.6254
rfemur -15.7151 7.68264 20.5473
rtibia 33.3752
rfoot -19.7449 -22.4506
rtoes -6.98972
lfemur -18.7463 -7.11304 -24.5939
ltibia 33.4435
lfoot -7.87108 23.8603
ltoes 0.758931
211
root 1.74385 15.6817 3.6109 -171.136 0.827964 177.668
lowerback -6.45677 -0.199024 -5.11602
upperback 1.38199 0.208792 -0.483564
thorax 5.05429 -0.0319704 2.39388
lowerneck -37.2553 -1.65943 1.09271
upperneck 39.8916 -2.10769 1.50421
head 24.0992 0.361371 0.301129
rclavicle -3.50358e-015 5.86415e-015
rhumerus -43.2303 -32.3756 -64.5361
rradius 21.5226
rwrist 43.1737
rhand -3.93131 -7.21845
rfingers 7.12502
rthumb 21.8199 -36.0083
lclavicle -3.50358e-015 5.86415e-015
lhumerus -33.4503 36.1544 69.3644
lradius 15.2697
lwrist -66.3382
lhand -1.61311 7.05732
lfingers 7.12502
lthumb 24.0444 35.5711
rfemur -15.723 7.67618 20.5505
rtibia 33.3508
rfoot -19.7703 -22.4679
rtoes -6.96588
lfemur -18.7853 -7.1245 -24.5862
ltibia 33.4646
lfoot -7.88297 23.8714
ltoes 0.736412
212
root 1.74789 15.6812 3.59871 -171.065 0.825023 177.649
lowerback -6.46183 -0.182186 -5.13097
upperback 1.36646 0.231677 -0.475162
thorax 5.03901 -0.0206691 2.41349
lowerneck -37.2363 -1.65221 1.06159
upperneck 39.8401 -2.08366 1.50544
head 24.046 0.359681 0.312248
rclavicle -6.95746e-016 -1.92821e-014
rhumerus -44.2276 -33.3554 -63.0422
rradius 20.9762
rwrist 44.4484
rhand -3.76516 -7.23471
rfingers 7.12502
rthumb 21.9795 -36.0059
lclavicle -6.95746e-016 -1.92821e-014
lhumerus -35.5586 39.2317 66.3136
lradius 14.5901
lwrist -69.7348
lhand -1.42179 6.98807
lfingers 7.12502
lthumb 24.2279 35.4775
rfemur -15.7453 7.68741 20.5424
rtibia 33.3406
rfoot -19.7928 -22.4953
rtoes -6.95918
lfemur -18.8261 -7.12912 -24.5874
ltibia 33.4804
lfoot -7.89347 23.8826
ltoes 0.704942
213
root 1.75201 15.6804 3.58668 -170.995 0.828848 177.621
lowerback -6.45978 -0.164494 -5.15728
upperback 1.34573 0.256402 -0.470575
thorax 5.0141 -0.00831356 2.43565
lowerneck -37.2395 -1.63253 1.05812
upperneck 39.7971 -2.0501 1.48773
head 24.0071 0.363515 0.310622
rclavicle -3.23025e-016 -7.15625e-015
rhumerus -45.2898 -34.3439 -61.461
rradius 20.446
rwrist 45.7915
rhand -3.60967 -7.24632
rfingers 7.12502
rthumb 22.1287 -35.9999
lclavicle -3.23025e-016 -7.15625e-015
lhumerus -37.9986 42.1811 62.9112
lradius 13.9895
lwrist -73.1983
lhand -1.23154 6.90607
lfingers 7.12502
lthumb 24.4103 35.3711
rfemur -15.7748 7.7018 20.5241
rtibia 33.3445
rfoot -19.8217 -22.5212
rtoes -6.96016
lfemur -18.862 -7.12807 -24.5987
ltibia 33.4887
lfoot -7.90121 23.8936
ltoes 0.668624
214
root 1.75627 15.6795 3.57475 -170.935 0.835796 177.586
lowerback -6.44743 -0.146081 -5.19039
upperback 1.32822 0.282701 -0.472918
thorax 4.9866 0.00485868 2.45452
lowerneck -37.2765 -1.61516 1.06838
upperneck 39.7823 -2.02414 1.46421
head 24.0055 0.368341 0.302127
rclavicle 6.4605e-016 -7.95139e-015
rhumerus -46.412 -35.3399 -59.8057
rradius 19.9405
rwrist 47.1818
rhand -3.47511 -7.2624
rfingers 7.12502
rthumb 22.2579 -36.0007
lclavicle 6.4605e-016 -7.95139e-015
lhumerus -40.776 44.9579 59.1519
lradius 13.472
lwrist -76.6897
lhand -1.0425 6.80689
lfingers 7.12502
lthumb 24.5915 35.2473
rfemur -15.8003 7.7231 20.4996
rtibia 33.36
rfoot -19.8557 -22.5551
rtoes -6.97837
lfemur -18.8839 -7.12188 -24.6197
ltibia 33.4897
lfoot -7.90832 23.9052
ltoes 0.627763
